<mxfile host="app.diagrams.net" modified="2023-08-14T11:16:43.398Z" agent="Mozilla/5.0 (Windows NT 10.0; Win64; x64) AppleWebKit/537.36 (KHTML, like Gecko) Chrome/115.0.0.0 Safari/537.36" version="21.6.8" etag="yazOL_Rqqg6Qu98bfeB2" type="github">
  <diagram name="ページ1" id="Jn8TBwAElaw94Q5TDB7D">
    <mxGraphModel>
      <root>
        <mxCell id="0" />
        <mxCell id="1" parent="0" />
      </root>
    </mxGraphModel>
  </diagram>
</mxfile>
